REM DIRINDEX 1\2,1\3,1\4,1\5
REM DIRNAME "folder01","folder02","folder03","folder04","folder05"
TITLE ""
FILE "1Q_t_1188-1200.mp3" MP3
  TRACK 01 AUDIO
    TITLE "3:cjc172_4530"
    INDEX 01 00:00:00
  TRACK 02 AUDIO
    TITLE "0:"
    INDEX 01 00:01:35
  TRACK 03 AUDIO
    TITLE "4:cjc172_4531"
    INDEX 01 00:01:45
  TRACK 04 AUDIO
    TITLE "0:"
    INDEX 01 00:04:12
  TRACK 05 AUDIO
    TITLE "5:cjc172_4532"
    INDEX 01 00:04:18
  TRACK 06 AUDIO
    TITLE "0:"
    INDEX 01 00:09:39
  TRACK 07 AUDIO
    TITLE "3:cjc172_4533"
    INDEX 01 00:10:07
  TRACK 08 AUDIO
    TITLE "0:"
    INDEX 01 00:11:10
  TRACK 09 AUDIO
    TITLE "4:cjc172_4534"
    INDEX 01 00:11:18
  TRACK 10 AUDIO
    TITLE "0:"
    INDEX 01 00:13:42
  TRACK 11 AUDIO
    TITLE "5:cjc172_4535"
    INDEX 01 00:13:50
  TRACK 12 AUDIO
    TITLE "0:"
    INDEX 01 00:19:41
  TRACK 13 AUDIO
    TITLE "3:cjc172_4536"
    INDEX 01 00:20:11
  TRACK 14 AUDIO
    TITLE "0:"
    INDEX 01 00:21:18
  TRACK 15 AUDIO
    TITLE "4:cjc172_4537"
    INDEX 01 00:21:26
  TRACK 16 AUDIO
    TITLE "0:"
    INDEX 01 00:23:70
  TRACK 17 AUDIO
    TITLE "5:cjc172_4538"
    INDEX 01 00:24:01
  TRACK 18 AUDIO
    TITLE "0:"
    INDEX 01 00:30:58
  TRACK 19 AUDIO
    TITLE "3:cjc172_4539"
    INDEX 01 00:31:32
  TRACK 20 AUDIO
    TITLE "0:"
    INDEX 01 00:32:48
  TRACK 21 AUDIO
    TITLE "4:cjc172_4540"
    INDEX 01 00:32:55
  TRACK 22 AUDIO
    TITLE "0:"
    INDEX 01 00:34:74
  TRACK 23 AUDIO
    TITLE "5:cjc172_4541"
    INDEX 01 00:35:07
  TRACK 24 AUDIO
    TITLE "0:"
    INDEX 01 00:40:49
  TRACK 25 AUDIO
    TITLE "3:cjc172_4542"
    INDEX 01 00:41:21
  TRACK 26 AUDIO
    TITLE "0:"
    INDEX 01 00:42:32
  TRACK 27 AUDIO
    TITLE "4:cjc172_4543"
    INDEX 01 00:42:40
  TRACK 28 AUDIO
    TITLE "0:"
    INDEX 01 00:45:01
  TRACK 29 AUDIO
    TITLE "5:cjc172_4544"
    INDEX 01 00:45:09
  TRACK 30 AUDIO
    TITLE "0:"
    INDEX 01 00:51:25
  TRACK 31 AUDIO
    TITLE "3:cjc172_4545"
    INDEX 01 00:51:70
  TRACK 32 AUDIO
    TITLE "0:"
    INDEX 01 00:53:22
  TRACK 33 AUDIO
    TITLE "4:cjc172_4546"
    INDEX 01 00:53:32
  TRACK 34 AUDIO
    TITLE "0:"
    INDEX 01 00:56:26
  TRACK 35 AUDIO
    TITLE "5:cjc172_4547"
    INDEX 01 00:56:34
  TRACK 36 AUDIO
    TITLE "0:"
    INDEX 01 01:03:21
  TRACK 37 AUDIO
    TITLE "3:cjc172_4548"
    INDEX 01 01:03:66
  TRACK 38 AUDIO
    TITLE "0:"
    INDEX 01 01:05:06
  TRACK 39 AUDIO
    TITLE "4:cjc172_4549"
    INDEX 01 01:05:14
  TRACK 40 AUDIO
    TITLE "0:"
    INDEX 01 01:08:10
  TRACK 41 AUDIO
    TITLE "5:cjc172_4550"
    INDEX 01 01:08:16
  TRACK 42 AUDIO
    TITLE "0:"
    INDEX 01 01:14:03
  TRACK 43 AUDIO
    TITLE "3:cjc172_4551"
    INDEX 01 01:14:48
  TRACK 44 AUDIO
    TITLE "0:"
    INDEX 01 01:15:61
  TRACK 45 AUDIO
    TITLE "4:cjc172_4552"
    INDEX 01 01:15:69
  TRACK 46 AUDIO
    TITLE "0:"
    INDEX 01 01:18:30
  TRACK 47 AUDIO
    TITLE "5:cjc172_4553"
    INDEX 01 01:18:36
  TRACK 48 AUDIO
    TITLE "0:"
    INDEX 01 01:25:14
  TRACK 49 AUDIO
    TITLE "3:cjc172_4554"
    INDEX 01 01:25:59
  TRACK 50 AUDIO
    TITLE "0:"
    INDEX 01 01:26:73
  TRACK 51 AUDIO
    TITLE "4:cjc172_4555"
    INDEX 01 01:27:04
  TRACK 52 AUDIO
    TITLE "0:"
    INDEX 01 01:28:52
  TRACK 53 AUDIO
    TITLE "5:cjc172_4556"
    INDEX 01 01:28:58
  TRACK 54 AUDIO
    TITLE "0:"
    INDEX 01 01:34:07
  TRACK 55 AUDIO
    TITLE "3:cjc172_4557"
    INDEX 01 01:34:51
  TRACK 56 AUDIO
    TITLE "0:"
    INDEX 01 01:36:12
  TRACK 57 AUDIO
    TITLE "4:cjc172_4558"
    INDEX 01 01:36:20
  TRACK 58 AUDIO
    TITLE "0:"
    INDEX 01 01:38:56
  TRACK 59 AUDIO
    TITLE "5:cjc172_4559"
    INDEX 01 01:38:62
  TRACK 60 AUDIO
    TITLE "0:"
    INDEX 01 01:45:62
  TRACK 61 AUDIO
    TITLE "3:cjc172_4560"
    INDEX 01 01:46:34
  TRACK 62 AUDIO
    TITLE "0:"
    INDEX 01 01:47:65
  TRACK 63 AUDIO
    TITLE "4:cjc172_4561"
    INDEX 01 01:48:00
  TRACK 64 AUDIO
    TITLE "0:"
    INDEX 01 01:51:39
  TRACK 65 AUDIO
    TITLE "5:cjc172_4562"
    INDEX 01 01:51:45
  TRACK 66 AUDIO
    TITLE "0:"
    INDEX 01 01:59:45
  TRACK 67 AUDIO
    TITLE "3:cjc172_4563"
    INDEX 01 02:00:13
  TRACK 68 AUDIO
    TITLE "0:"
    INDEX 01 02:01:36
  TRACK 69 AUDIO
    TITLE "4:cjc172_4564"
    INDEX 01 02:01:45
  TRACK 70 AUDIO
    TITLE "0:"
    INDEX 01 02:03:56
  TRACK 71 AUDIO
    TITLE "5:cjc172_4565"
    INDEX 01 02:03:62
  TRACK 72 AUDIO
    TITLE "0:"
    INDEX 01 02:10:54
  TRACK 73 AUDIO
    TITLE "2:cjc172_4566"
    INDEX 01 02:11:24
  TRACK 74 AUDIO
    TITLE "0:"
    INDEX 01 02:12:28
  TRACK 75 AUDIO
    TITLE "3:cjc172_4567"
    INDEX 01 02:12:71
  TRACK 76 AUDIO
    TITLE "0:"
    INDEX 01 02:14:13
  TRACK 77 AUDIO
    TITLE "4:cjc172_4568"
    INDEX 01 02:14:21
  TRACK 78 AUDIO
    TITLE "0:"
    INDEX 01 02:17:41
  TRACK 79 AUDIO
    TITLE "5:cjc172_4569"
    INDEX 01 02:17:46
  TRACK 80 AUDIO
    TITLE "0:"
    INDEX 01 02:23:57
